<svg xmlns="http://www.w3.org/2000/svg" viewBox="0 0 64 64" fill="none">
  <circle cx="32" cy="32" r="30" fill="#1e40af" stroke="#60a5fa" stroke-width="2"/>
  <path d="M32 8 C28 20, 24 28, 20 36 C16 44, 24 52, 32 56 C40 52, 48 44, 44 36 C40 28, 36 20, 32 8Z" fill="#60a5fa" opacity="0.8"/>
  <path d="M32 12 C30 20, 28 28, 26 36 C24 42, 28 48, 32 52 C36 48, 40 42, 38 36 C36 28, 34 20, 32 12Z" fill="#93c5fd" opacity="0.9"/>
  <path d="M32 18 C31 24, 30 30, 30 36 C30 40, 31 44, 32 48 C33 44, 34 40, 34 36 C34 30, 33 24, 32 18Z" fill="#dbeafe"/>
</svg>
